# xmcd CD database file
#
# Track frame offsets:
#	150
#	19155
#	34580
#	51350
#	67747
#	88395
#	109025
#	126542
#	143167
#	155960
#	175745
#	198197
#	214015
#	232575
#	252607
#
# Disc length: 3587 seconds
#
# Revision: 1
# Processed by: cddbd v1.5.1PL2 Copyright (c) Steve Scherf et al.
# Submitted via: CDex 1.51
#
DISCID=d40e010f
DTITLE=Joe - And Then...
DYEAR=2004
DGENRE=R&B
TTITLE0=Ride Wit U featuring G-Unit
TTITLE1=And Then...
TTITLE2=More and More
TTITLE3=Sweeter Than Sugar
TTITLE4=Priceless
TTITLE5=Jeep
TTITLE6=You Dropped Your Dime
TTITLE7=Make You My Baby
TTITLE8=Street Dreams
TTITLE9=It Ain't Like That
TTITLE10=Another Used To Be
TTITLE11=Bedroom
TTITLE12=Testify
TTITLE13=Hey Mami
TTITLE14=I Remember featuring Freeway
EXTD=YEAR: 2004
EXTT0=
EXTT1=
EXTT2=
EXTT3=
EXTT4=
EXTT5=
EXTT6=
EXTT7=
EXTT8=
EXTT9=
EXTT10=
EXTT11=
EXTT12=
EXTT13=
EXTT14=
PLAYORDER=
